<svg id="Api-1--Streamline-Carbon" xmlns="http://www.w3.org/2000/svg" viewBox="0 0 16 16" height="16" width="16">
    <desc>API 1 Streamline Icon: https://streamlinehq.com</desc>
    <defs></defs>
    <title>API</title>
    <path d="M4 4.5H2a1 1 0 0 0 -1 1v6h1v-2.5h2v2.5h1V5.5a1 1 0 0 0 -1 -1Zm-2 3.5v-2.5h2v2.5Z" fill="#fff"
          stroke-width="0.5"></path>
    <path d="m11 5.5 1.5 0 0 5 -1.5 0 0 1 4 0 0 -1 -1.5 0 0 -5 1.5 0 0 -1 -4 0 0 1z" fill="#fff"
          stroke-width="0.5"></path>
    <path d="M7 11.5h-1V4.5h3a1 1 0 0 1 1 1v2.5a1 1 0 0 1 -1 1h-2Zm0 -3.5h2v-2.5h-2Z" fill="#fff"
          stroke-width="0.5"></path>
    <path id="_Transparent_Rectangle_" d="M0 0h16v16H0Z" fill="none" stroke-width="0.5"></path>
</svg>